<?xml version="1.0" encoding="iso-8859-1"?>
<!-- Uploaded to: SVG Repo, www.svgrepo.com, Generator: SVG Repo Mixer Tools -->
<svg height="800px" width="800px" version="1.1" id="Layer_1" xmlns="http://www.w3.org/2000/svg" xmlns:xlink="http://www.w3.org/1999/xlink"
 viewBox="0 0 503.689 503.689" xml:space="preserve">
<g transform="translate(1 1)">
<!-- Removed dot fills from here -->
<path style="fill:#F2EDDA;" d=" "/>
<path style="fill:#FFE079;" d="M447,97.244l-196.267,153.6L447,404.444c-45.227,58.027-116.907,93.867-196.267,93.867
C114.2,498.311,3.267,387.378,3.267,250.844S114.2,3.378,250.733,3.378C330.093,3.378,401.773,39.218,447,97.244"/>
<path style="fill:#AAB1BA;" d="M242.2,71.644c9.387,0,17.067,7.68,17.067,17.067s-7.68,17.067-17.067,17.067
s-17.067-7.68-17.067-17.067S232.813,71.644,242.2,71.644"/>
</g>
<path style="fill:#51565F;" d="M251.733,503.578C112.64,503.578,0,390.938,0,251.844S112.64,0.111,251.733,0.111
c77.653,0,152.747,35.84,199.68,95.573c0.853,0.853,0.853,1.707,0.853,3.413c0,0.853-0.853,2.56-1.707,2.56l-196.267,153.6
c-1.707,1.707-4.267,0.853-5.973-0.853c-1.707-1.707-0.853-4.267,0.853-5.973l192.853-151.04
C396.8,41.924,325.973,8.644,251.733,8.644c-133.973,0-243.2,109.227-243.2,243.2s109.227,243.2,243.2,243.2
c74.24,0,145.067-33.28,190.293-88.747l-163.84-128.853c-1.707-1.707-2.56-4.267-0.853-5.973c1.707-1.707,4.267-2.56,5.973-0.853
L450.56,402.031c0.853,0.853,1.707,1.707,1.707,2.56c0,0.853,0,2.56-0.853,3.413C404.48,467.738,329.387,503.578,251.733,503.578z
 M243.2,111.044
c-11.947,0-21.333-9.387-21.333-21.333s9.387-21.333,21.333-21.333s21.333,9.387,21.333,21.333S255.147,111.044,243.2,111.044z
 M243.2,76.911c-6.827,0-12.8,5.973-12.8,12.8c0,6.827,5.973,12.8,12.8,12.8s12.8-5.973,12.8-12.8
C256,82.884,250.027,76.911,243.2,76.911z"/>
</svg>
